<mxfile host="app.diagrams.net" agent="Mozilla/5.0 (Windows NT 10.0; Win64; x64) AppleWebKit/537.36 (KHTML, like Gecko) Chrome/135.0.0.0 Safari/537.36 OPR/120.0.0.0" version="28.1.1">
  <diagram name="Page-1" id="ff44883e-f642-bcb2-894b-16b3d25a3f0b">
    <mxGraphModel dx="1351" dy="658" grid="1" gridSize="10" guides="1" tooltips="1" connect="1" arrows="1" fold="1" page="1" pageScale="1.5" pageWidth="1169" pageHeight="826" background="none" math="0" shadow="0">
      <root>
        <mxCell id="0" style=";html=1;" />
        <mxCell id="1" style=";html=1;" parent="0" />
        <mxCell id="f0bcc99304e6f5a-9" style="edgeStyle=none;curved=1;html=1;startSize=10;endArrow=classic;endFill=1;endSize=10;strokeColor=#000000;strokeWidth=2;fontSize=12;" parent="1" source="f0bcc99304e6f5a-1" target="f0bcc99304e6f5a-2" edge="1">
          <mxGeometry relative="1" as="geometry" />
        </mxCell>
        <mxCell id="f0bcc99304e6f5a-18" value="t=2 mo" style="text;html=1;resizable=0;points=[];align=center;verticalAlign=middle;labelBackgroundColor=none;fontSize=20;" parent="f0bcc99304e6f5a-9" vertex="1" connectable="0">
          <mxGeometry x="0.2545" y="-5" relative="1" as="geometry">
            <mxPoint x="-8" y="-25" as="offset" />
          </mxGeometry>
        </mxCell>
        <mxCell id="f0bcc99304e6f5a-16" style="edgeStyle=none;curved=1;html=1;startSize=10;endFill=1;endSize=10;strokeWidth=2;fontSize=12;" parent="1" source="f0bcc99304e6f5a-1" target="f0bcc99304e6f5a-3" edge="1">
          <mxGeometry relative="1" as="geometry" />
        </mxCell>
        <mxCell id="f0bcc99304e6f5a-19" value="t=1 mo" style="text;html=1;resizable=0;points=[];align=center;verticalAlign=middle;labelBackgroundColor=#ffffff;fontSize=20;" parent="f0bcc99304e6f5a-16" vertex="1" connectable="0">
          <mxGeometry x="-0.0743" y="-2" relative="1" as="geometry">
            <mxPoint x="57" y="-3" as="offset" />
          </mxGeometry>
        </mxCell>
        <mxCell id="f0bcc99304e6f5a-1" value="10" style="ellipse;whiteSpace=wrap;html=1;rounded=0;shadow=1;strokeColor=#666666;strokeWidth=4;fontSize=30;align=center;fillColor=#f5f5f5;" parent="1" vertex="1">
          <mxGeometry x="170" y="570" width="80" height="80" as="geometry" />
        </mxCell>
        <mxCell id="f0bcc99304e6f5a-10" style="edgeStyle=none;curved=1;html=1;startSize=10;endFill=1;endSize=10;strokeWidth=2;fontSize=12;" parent="1" source="f0bcc99304e6f5a-2" target="f0bcc99304e6f5a-6" edge="1">
          <mxGeometry relative="1" as="geometry" />
        </mxCell>
        <mxCell id="f0bcc99304e6f5a-20" value="t=3 mo" style="text;html=1;resizable=0;points=[];align=center;verticalAlign=middle;labelBackgroundColor=#ffffff;fontSize=20;" parent="f0bcc99304e6f5a-10" vertex="1" connectable="0">
          <mxGeometry x="0.1545" relative="1" as="geometry">
            <mxPoint x="3" y="-20" as="offset" />
          </mxGeometry>
        </mxCell>
        <mxCell id="f0bcc99304e6f5a-11" style="edgeStyle=none;curved=1;html=1;startSize=10;endFill=1;endSize=10;strokeWidth=2;fontSize=12;" parent="1" source="f0bcc99304e6f5a-2" target="f0bcc99304e6f5a-5" edge="1">
          <mxGeometry relative="1" as="geometry" />
        </mxCell>
        <mxCell id="f0bcc99304e6f5a-24" value="t=3mo" style="text;html=1;resizable=0;points=[];align=center;verticalAlign=middle;labelBackgroundColor=#ffffff;fontSize=20;" parent="f0bcc99304e6f5a-11" vertex="1" connectable="0">
          <mxGeometry x="0.1672" y="-3" relative="1" as="geometry">
            <mxPoint x="-51" y="4" as="offset" />
          </mxGeometry>
        </mxCell>
        <mxCell id="f0bcc99304e6f5a-2" value="20" style="ellipse;whiteSpace=wrap;html=1;rounded=0;shadow=1;strokeColor=#666666;strokeWidth=1;fontSize=30;align=center;fillColor=#f5f5f5;" parent="1" vertex="1">
          <mxGeometry x="470" y="570" width="80" height="80" as="geometry" />
        </mxCell>
        <mxCell id="f0bcc99304e6f5a-17" style="edgeStyle=none;curved=1;html=1;startSize=10;endFill=1;endSize=10;strokeWidth=2;fontSize=12;" parent="1" source="f0bcc99304e6f5a-3" target="f0bcc99304e6f5a-4" edge="1">
          <mxGeometry relative="1" as="geometry" />
        </mxCell>
        <mxCell id="f0bcc99304e6f5a-27" value="t=4 mo" style="text;html=1;resizable=0;points=[];align=center;verticalAlign=middle;labelBackgroundColor=#ffffff;fontSize=20;" parent="f0bcc99304e6f5a-17" vertex="1" connectable="0">
          <mxGeometry x="-0.1324" y="-6" relative="1" as="geometry">
            <mxPoint x="-17" y="-31" as="offset" />
          </mxGeometry>
        </mxCell>
        <mxCell id="f0bcc99304e6f5a-3" value="30" style="ellipse;whiteSpace=wrap;html=1;rounded=0;shadow=1;strokeColor=#666666;strokeWidth=1;fontSize=30;align=center;fillColor=#f5f5f5;" parent="1" vertex="1">
          <mxGeometry x="670" y="850" width="80" height="80" as="geometry" />
        </mxCell>
        <mxCell id="f0bcc99304e6f5a-15" style="edgeStyle=none;curved=1;html=1;startSize=10;endFill=1;endSize=10;strokeWidth=2;fontSize=12;" parent="1" source="f0bcc99304e6f5a-4" target="f0bcc99304e6f5a-8" edge="1">
          <mxGeometry relative="1" as="geometry" />
        </mxCell>
        <mxCell id="f0bcc99304e6f5a-23" value="t=3 mo" style="text;html=1;resizable=0;points=[];align=center;verticalAlign=middle;labelBackgroundColor=#ffffff;fontSize=20;" parent="f0bcc99304e6f5a-15" vertex="1" connectable="0">
          <mxGeometry x="-0.4143" y="-1" relative="1" as="geometry">
            <mxPoint x="18" y="-21" as="offset" />
          </mxGeometry>
        </mxCell>
        <mxCell id="f0bcc99304e6f5a-4" value="50" style="ellipse;whiteSpace=wrap;html=1;rounded=0;shadow=1;strokeColor=#666666;strokeWidth=1;fontSize=30;align=center;fillColor=#f5f5f5;" parent="1" vertex="1">
          <mxGeometry x="1130" y="570" width="80" height="80" as="geometry" />
        </mxCell>
        <mxCell id="f0bcc99304e6f5a-12" style="edgeStyle=none;curved=1;html=1;startSize=10;endFill=1;endSize=10;strokeWidth=2;fontSize=12;" parent="1" source="f0bcc99304e6f5a-5" target="f0bcc99304e6f5a-7" edge="1">
          <mxGeometry relative="1" as="geometry" />
        </mxCell>
        <mxCell id="f0bcc99304e6f5a-25" value="t=1mo" style="text;html=1;resizable=0;points=[];align=center;verticalAlign=middle;labelBackgroundColor=#ffffff;fontSize=20;" parent="f0bcc99304e6f5a-12" vertex="1" connectable="0">
          <mxGeometry x="-0.0727" y="-5" relative="1" as="geometry">
            <mxPoint x="18" y="-25" as="offset" />
          </mxGeometry>
        </mxCell>
        <mxCell id="f0bcc99304e6f5a-5" value="60" style="ellipse;whiteSpace=wrap;html=1;rounded=0;shadow=1;strokeColor=#666666;strokeWidth=1;fontSize=30;align=center;fillColor=#f5f5f5;" parent="1" vertex="1">
          <mxGeometry x="820" y="260" width="80" height="80" as="geometry" />
        </mxCell>
        <mxCell id="f0bcc99304e6f5a-14" style="edgeStyle=none;curved=1;html=1;startSize=10;endFill=1;endSize=10;strokeWidth=2;fontSize=12;" parent="1" source="f0bcc99304e6f5a-6" target="f0bcc99304e6f5a-4" edge="1">
          <mxGeometry relative="1" as="geometry" />
        </mxCell>
        <mxCell id="f0bcc99304e6f5a-22" value="t=2 mo" style="text;html=1;resizable=0;points=[];align=center;verticalAlign=middle;labelBackgroundColor=#ffffff;fontSize=20;" parent="f0bcc99304e6f5a-14" vertex="1" connectable="0">
          <mxGeometry x="-0.3488" y="-1" relative="1" as="geometry">
            <mxPoint x="29" y="-21" as="offset" />
          </mxGeometry>
        </mxCell>
        <mxCell id="f0bcc99304e6f5a-6" value="40" style="ellipse;whiteSpace=wrap;html=1;rounded=0;shadow=1;strokeColor=#666666;strokeWidth=1;fontSize=30;align=center;fillColor=#f5f5f5;" parent="1" vertex="1">
          <mxGeometry x="770" y="570" width="80" height="80" as="geometry" />
        </mxCell>
        <mxCell id="f0bcc99304e6f5a-13" style="edgeStyle=none;curved=1;html=1;startSize=10;endFill=1;endSize=10;strokeWidth=2;fontSize=12;" parent="1" source="f0bcc99304e6f5a-7" target="f0bcc99304e6f5a-8" edge="1">
          <mxGeometry relative="1" as="geometry" />
        </mxCell>
        <mxCell id="f0bcc99304e6f5a-26" value="t=4 mo" style="text;html=1;resizable=0;points=[];align=center;verticalAlign=middle;labelBackgroundColor=#ffffff;fontSize=20;" parent="f0bcc99304e6f5a-13" vertex="1" connectable="0">
          <mxGeometry x="-0.2658" y="2" relative="1" as="geometry">
            <mxPoint x="45" y="1" as="offset" />
          </mxGeometry>
        </mxCell>
        <mxCell id="f0bcc99304e6f5a-7" value="70" style="ellipse;whiteSpace=wrap;html=1;rounded=0;shadow=1;strokeColor=#666666;strokeWidth=1;fontSize=30;align=center;fillColor=#f5f5f5;" parent="1" vertex="1">
          <mxGeometry x="1120" y="260" width="80" height="80" as="geometry" />
        </mxCell>
        <mxCell id="f0bcc99304e6f5a-8" value="80" style="ellipse;whiteSpace=wrap;html=1;rounded=0;shadow=1;strokeColor=#666666;strokeWidth=4;fontSize=30;align=center;fillColor=#f5f5f5;" parent="1" vertex="1">
          <mxGeometry x="1490" y="570" width="80" height="80" as="geometry" />
        </mxCell>
        <mxCell id="f0bcc99304e6f5a-28" value="A" style="text;html=1;strokeColor=none;fillColor=none;align=center;verticalAlign=middle;whiteSpace=wrap;rounded=0;shadow=1;labelBackgroundColor=none;fontSize=20;" parent="1" vertex="1">
          <mxGeometry x="430" y="770" width="40" height="20" as="geometry" />
        </mxCell>
        <mxCell id="f0bcc99304e6f5a-29" value="B" style="text;html=1;strokeColor=none;fillColor=none;align=center;verticalAlign=middle;whiteSpace=wrap;rounded=0;shadow=1;labelBackgroundColor=none;fontSize=20;" parent="1" vertex="1">
          <mxGeometry x="350" y="620" width="40" height="20" as="geometry" />
        </mxCell>
        <mxCell id="f0bcc99304e6f5a-30" value="C" style="text;html=1;strokeColor=none;fillColor=none;align=center;verticalAlign=middle;whiteSpace=wrap;rounded=0;shadow=1;labelBackgroundColor=none;fontSize=20;" parent="1" vertex="1">
          <mxGeometry x="640" y="620" width="40" height="20" as="geometry" />
        </mxCell>
        <mxCell id="f0bcc99304e6f5a-31" value="D" style="text;html=1;strokeColor=none;fillColor=none;align=center;verticalAlign=middle;whiteSpace=wrap;rounded=0;shadow=1;labelBackgroundColor=none;fontSize=20;" parent="1" vertex="1">
          <mxGeometry x="700" y="440" width="40" height="20" as="geometry" />
        </mxCell>
        <mxCell id="f0bcc99304e6f5a-32" value="E" style="text;html=1;strokeColor=none;fillColor=none;align=center;verticalAlign=middle;whiteSpace=wrap;rounded=0;shadow=1;labelBackgroundColor=none;fontSize=20;" parent="1" vertex="1">
          <mxGeometry x="930" y="770" width="40" height="20" as="geometry" />
        </mxCell>
        <mxCell id="f0bcc99304e6f5a-33" value="F" style="text;html=1;strokeColor=none;fillColor=none;align=center;verticalAlign=middle;whiteSpace=wrap;rounded=0;shadow=1;labelBackgroundColor=none;fontSize=20;" parent="1" vertex="1">
          <mxGeometry x="940" y="620" width="40" height="20" as="geometry" />
        </mxCell>
        <mxCell id="f0bcc99304e6f5a-34" value="G" style="text;html=1;strokeColor=none;fillColor=none;align=center;verticalAlign=middle;whiteSpace=wrap;rounded=0;shadow=1;labelBackgroundColor=none;fontSize=20;" parent="1" vertex="1">
          <mxGeometry x="990" y="310" width="40" height="20" as="geometry" />
        </mxCell>
        <mxCell id="f0bcc99304e6f5a-35" value="H" style="text;html=1;strokeColor=none;fillColor=none;align=center;verticalAlign=middle;whiteSpace=wrap;rounded=0;shadow=1;labelBackgroundColor=none;fontSize=20;" parent="1" vertex="1">
          <mxGeometry x="1280" y="440" width="40" height="20" as="geometry" />
        </mxCell>
        <mxCell id="f0bcc99304e6f5a-36" value="I" style="text;html=1;strokeColor=none;fillColor=none;align=center;verticalAlign=middle;whiteSpace=wrap;rounded=0;shadow=1;labelBackgroundColor=none;fontSize=20;" parent="1" vertex="1">
          <mxGeometry x="1310" y="620" width="40" height="20" as="geometry" />
        </mxCell>
        <mxCell id="t--BiPY_vCET7tzlfrdH-1" style="edgeStyle=none;curved=1;html=1;startSize=10;endArrow=classic;endFill=1;endSize=10;strokeColor=#000000;strokeWidth=2;fontSize=12;" edge="1" parent="1" source="t--BiPY_vCET7tzlfrdH-5" target="t--BiPY_vCET7tzlfrdH-8">
          <mxGeometry relative="1" as="geometry" />
        </mxCell>
        <mxCell id="t--BiPY_vCET7tzlfrdH-3" style="edgeStyle=none;curved=1;html=1;startSize=10;endFill=1;endSize=10;strokeWidth=2;fontSize=12;fillColor=light-dark(transparent,#225555);strokeColor=light-dark(#000000,#FF0000);" edge="1" parent="1" source="t--BiPY_vCET7tzlfrdH-5" target="t--BiPY_vCET7tzlfrdH-9">
          <mxGeometry relative="1" as="geometry" />
        </mxCell>
        <mxCell id="t--BiPY_vCET7tzlfrdH-4" value="t=1 mo" style="text;html=1;resizable=0;points=[];align=center;verticalAlign=middle;labelBackgroundColor=#ffffff;fontSize=20;" vertex="1" connectable="0" parent="t--BiPY_vCET7tzlfrdH-3">
          <mxGeometry x="-0.0743" y="-2" relative="1" as="geometry">
            <mxPoint x="1022" y="-277" as="offset" />
          </mxGeometry>
        </mxCell>
        <mxCell id="t--BiPY_vCET7tzlfrdH-5" value="10" style="ellipse;whiteSpace=wrap;html=1;rounded=0;shadow=1;strokeColor=#666666;strokeWidth=4;fontSize=30;align=center;fillColor=#f5f5f5;" vertex="1" parent="1">
          <mxGeometry x="120" y="1680" width="80" height="80" as="geometry" />
        </mxCell>
        <mxCell id="t--BiPY_vCET7tzlfrdH-6" style="edgeStyle=none;curved=1;html=1;startSize=10;endFill=1;endSize=10;strokeWidth=2;fontSize=12;" edge="1" parent="1" source="t--BiPY_vCET7tzlfrdH-8" target="t--BiPY_vCET7tzlfrdH-19">
          <mxGeometry relative="1" as="geometry">
            <mxPoint x="640" y="1560" as="targetPoint" />
          </mxGeometry>
        </mxCell>
        <mxCell id="t--BiPY_vCET7tzlfrdH-7" value="t=3 mo" style="text;html=1;resizable=0;points=[];align=center;verticalAlign=middle;labelBackgroundColor=#ffffff;fontSize=20;" vertex="1" connectable="0" parent="t--BiPY_vCET7tzlfrdH-6">
          <mxGeometry x="0.1545" relative="1" as="geometry">
            <mxPoint x="960" y="-84" as="offset" />
          </mxGeometry>
        </mxCell>
        <mxCell id="t--BiPY_vCET7tzlfrdH-8" value="20" style="ellipse;whiteSpace=wrap;html=1;rounded=0;shadow=1;strokeColor=#666666;strokeWidth=1;fontSize=30;align=center;fillColor=#f5f5f5;" vertex="1" parent="1">
          <mxGeometry x="400" y="1600" width="80" height="80" as="geometry" />
        </mxCell>
        <mxCell id="t--BiPY_vCET7tzlfrdH-9" value="30" style="ellipse;whiteSpace=wrap;html=1;rounded=0;shadow=1;strokeColor=#666666;strokeWidth=1;fontSize=30;align=center;fillColor=#f5f5f5;" vertex="1" parent="1">
          <mxGeometry x="320" y="1760" width="80" height="80" as="geometry" />
        </mxCell>
        <mxCell id="t--BiPY_vCET7tzlfrdH-11" value="A" style="text;html=1;strokeColor=none;fillColor=none;align=center;verticalAlign=middle;whiteSpace=wrap;rounded=0;shadow=1;labelBackgroundColor=none;fontSize=20;" vertex="1" parent="1">
          <mxGeometry x="1714" y="1439.92" width="40" height="20" as="geometry" />
        </mxCell>
        <mxCell id="t--BiPY_vCET7tzlfrdH-12" value="B=8" style="text;html=1;strokeColor=none;fillColor=none;align=center;verticalAlign=middle;whiteSpace=wrap;rounded=0;shadow=1;labelBackgroundColor=none;fontSize=20;" vertex="1" parent="1">
          <mxGeometry x="220" y="1760" width="40" height="20" as="geometry" />
        </mxCell>
        <mxCell id="t--BiPY_vCET7tzlfrdH-13" value="C=6" style="text;html=1;strokeColor=none;fillColor=none;align=center;verticalAlign=middle;whiteSpace=wrap;rounded=0;shadow=1;labelBackgroundColor=none;fontSize=20;" vertex="1" parent="1">
          <mxGeometry x="480" y="1770" width="40" height="20" as="geometry" />
        </mxCell>
        <mxCell id="t--BiPY_vCET7tzlfrdH-14" value="50" style="ellipse;whiteSpace=wrap;html=1;rounded=0;shadow=1;strokeColor=#666666;strokeWidth=1;fontSize=30;align=center;fillColor=#f5f5f5;" vertex="1" parent="1">
          <mxGeometry x="840" y="1680" width="80" height="80" as="geometry" />
        </mxCell>
        <mxCell id="t--BiPY_vCET7tzlfrdH-15" value="30" style="ellipse;whiteSpace=wrap;html=1;rounded=0;shadow=1;strokeColor=#666666;strokeWidth=1;fontSize=30;align=center;fillColor=#f5f5f5;" vertex="1" parent="1">
          <mxGeometry x="1450" y="1670" width="80" height="80" as="geometry" />
        </mxCell>
        <mxCell id="t--BiPY_vCET7tzlfrdH-16" value="30" style="ellipse;whiteSpace=wrap;html=1;rounded=0;shadow=1;strokeColor=#666666;strokeWidth=1;fontSize=30;align=center;fillColor=#f5f5f5;" vertex="1" parent="1">
          <mxGeometry x="1440" y="1670" width="80" height="80" as="geometry" />
        </mxCell>
        <mxCell id="t--BiPY_vCET7tzlfrdH-17" value="30" style="ellipse;whiteSpace=wrap;html=1;rounded=0;shadow=1;strokeColor=#666666;strokeWidth=1;fontSize=30;align=center;fillColor=#f5f5f5;" vertex="1" parent="1">
          <mxGeometry x="1400" y="1680" width="80" height="80" as="geometry" />
        </mxCell>
        <mxCell id="t--BiPY_vCET7tzlfrdH-18" value="70" style="ellipse;whiteSpace=wrap;html=1;rounded=0;shadow=1;strokeColor=#666666;strokeWidth=1;fontSize=30;align=center;fillColor=#f5f5f5;" vertex="1" parent="1">
          <mxGeometry x="1120" y="1840" width="80" height="80" as="geometry" />
        </mxCell>
        <mxCell id="t--BiPY_vCET7tzlfrdH-19" value="40" style="ellipse;whiteSpace=wrap;html=1;rounded=0;shadow=1;strokeColor=#666666;strokeWidth=1;fontSize=30;align=center;fillColor=#f5f5f5;" vertex="1" parent="1">
          <mxGeometry x="600" y="1680" width="80" height="80" as="geometry" />
        </mxCell>
        <mxCell id="t--BiPY_vCET7tzlfrdH-20" value="60" style="ellipse;whiteSpace=wrap;html=1;rounded=0;shadow=1;strokeColor=#666666;strokeWidth=1;fontSize=30;align=center;fillColor=#f5f5f5;" vertex="1" parent="1">
          <mxGeometry x="840" y="1840" width="80" height="80" as="geometry" />
        </mxCell>
        <mxCell id="t--BiPY_vCET7tzlfrdH-21" style="edgeStyle=none;curved=1;html=1;startSize=10;endFill=1;endSize=10;strokeWidth=2;fontSize=12;entryX=0;entryY=0.5;entryDx=0;entryDy=0;exitX=1;exitY=0.5;exitDx=0;exitDy=0;strokeColor=light-dark(#000000,#FF0000);" edge="1" parent="1" source="t--BiPY_vCET7tzlfrdH-9" target="t--BiPY_vCET7tzlfrdH-19">
          <mxGeometry relative="1" as="geometry">
            <mxPoint x="440" y="1879.5" as="sourcePoint" />
            <mxPoint x="640" y="1879.5" as="targetPoint" />
          </mxGeometry>
        </mxCell>
        <mxCell id="t--BiPY_vCET7tzlfrdH-22" value="t=3 mo" style="text;html=1;resizable=0;points=[];align=center;verticalAlign=middle;labelBackgroundColor=#ffffff;fontSize=20;" vertex="1" connectable="0" parent="t--BiPY_vCET7tzlfrdH-21">
          <mxGeometry x="0.1545" relative="1" as="geometry">
            <mxPoint x="945" y="-369" as="offset" />
          </mxGeometry>
        </mxCell>
        <mxCell id="t--BiPY_vCET7tzlfrdH-23" style="edgeStyle=none;curved=1;html=1;startSize=10;endFill=1;endSize=10;strokeWidth=2;fontSize=12;" edge="1" parent="1">
          <mxGeometry relative="1" as="geometry">
            <mxPoint x="1450" y="1960" as="sourcePoint" />
            <mxPoint x="1650" y="1960" as="targetPoint" />
          </mxGeometry>
        </mxCell>
        <mxCell id="t--BiPY_vCET7tzlfrdH-24" value="t=3 mo" style="text;html=1;resizable=0;points=[];align=center;verticalAlign=middle;labelBackgroundColor=#ffffff;fontSize=20;" vertex="1" connectable="0" parent="t--BiPY_vCET7tzlfrdH-23">
          <mxGeometry x="0.1545" relative="1" as="geometry">
            <mxPoint x="572" y="-110" as="offset" />
          </mxGeometry>
        </mxCell>
        <mxCell id="t--BiPY_vCET7tzlfrdH-25" style="edgeStyle=none;curved=1;html=1;startSize=10;endFill=1;endSize=10;strokeWidth=2;fontSize=12;" edge="1" parent="1">
          <mxGeometry relative="1" as="geometry">
            <mxPoint x="1420" y="1960" as="sourcePoint" />
            <mxPoint x="1620" y="1960" as="targetPoint" />
          </mxGeometry>
        </mxCell>
        <mxCell id="t--BiPY_vCET7tzlfrdH-26" value="t=3 mo" style="text;html=1;resizable=0;points=[];align=center;verticalAlign=middle;labelBackgroundColor=#ffffff;fontSize=20;" vertex="1" connectable="0" parent="t--BiPY_vCET7tzlfrdH-25">
          <mxGeometry x="0.1545" relative="1" as="geometry">
            <mxPoint x="572" y="-110" as="offset" />
          </mxGeometry>
        </mxCell>
        <mxCell id="t--BiPY_vCET7tzlfrdH-27" style="edgeStyle=none;curved=1;html=1;startSize=10;endFill=1;endSize=10;strokeWidth=2;fontSize=12;strokeColor=light-dark(#000000,#FF0000);" edge="1" parent="1">
          <mxGeometry relative="1" as="geometry">
            <mxPoint x="920" y="1879.5" as="sourcePoint" />
            <mxPoint x="1120" y="1879.5" as="targetPoint" />
          </mxGeometry>
        </mxCell>
        <mxCell id="t--BiPY_vCET7tzlfrdH-28" value="t=3 mo" style="text;html=1;resizable=0;points=[];align=center;verticalAlign=middle;labelBackgroundColor=#ffffff;fontSize=20;" vertex="1" connectable="0" parent="t--BiPY_vCET7tzlfrdH-27">
          <mxGeometry x="0.1545" relative="1" as="geometry">
            <mxPoint x="572" y="-110" as="offset" />
          </mxGeometry>
        </mxCell>
        <mxCell id="t--BiPY_vCET7tzlfrdH-29" style="edgeStyle=none;curved=1;html=1;startSize=10;endFill=1;endSize=10;strokeWidth=2;fontSize=12;" edge="1" parent="1">
          <mxGeometry relative="1" as="geometry">
            <mxPoint x="1390" y="1960" as="sourcePoint" />
            <mxPoint x="1590" y="1960" as="targetPoint" />
          </mxGeometry>
        </mxCell>
        <mxCell id="t--BiPY_vCET7tzlfrdH-30" value="t=3 mo" style="text;html=1;resizable=0;points=[];align=center;verticalAlign=middle;labelBackgroundColor=#ffffff;fontSize=20;" vertex="1" connectable="0" parent="t--BiPY_vCET7tzlfrdH-29">
          <mxGeometry x="0.1545" relative="1" as="geometry">
            <mxPoint x="572" y="-110" as="offset" />
          </mxGeometry>
        </mxCell>
        <mxCell id="t--BiPY_vCET7tzlfrdH-31" style="edgeStyle=none;curved=1;html=1;startSize=10;endFill=1;endSize=10;strokeWidth=2;fontSize=12;" edge="1" parent="1">
          <mxGeometry relative="1" as="geometry">
            <mxPoint x="1390" y="1960" as="sourcePoint" />
            <mxPoint x="1590" y="1960" as="targetPoint" />
          </mxGeometry>
        </mxCell>
        <mxCell id="t--BiPY_vCET7tzlfrdH-32" value="t=3 mo" style="text;html=1;resizable=0;points=[];align=center;verticalAlign=middle;labelBackgroundColor=#ffffff;fontSize=20;" vertex="1" connectable="0" parent="t--BiPY_vCET7tzlfrdH-31">
          <mxGeometry x="0.1545" relative="1" as="geometry">
            <mxPoint x="572" y="-110" as="offset" />
          </mxGeometry>
        </mxCell>
        <mxCell id="t--BiPY_vCET7tzlfrdH-33" style="edgeStyle=none;curved=1;html=1;startSize=10;endFill=1;endSize=10;strokeWidth=2;fontSize=12;exitX=1;exitY=1;exitDx=0;exitDy=0;entryX=0;entryY=0;entryDx=0;entryDy=0;fillColor=light-dark(transparent,#FF0000);strokeColor=light-dark(#000000,#FF0000);" edge="1" parent="1" source="t--BiPY_vCET7tzlfrdH-19" target="t--BiPY_vCET7tzlfrdH-20">
          <mxGeometry relative="1" as="geometry">
            <mxPoint x="720" y="2030" as="sourcePoint" />
            <mxPoint x="920" y="2030" as="targetPoint" />
          </mxGeometry>
        </mxCell>
        <mxCell id="t--BiPY_vCET7tzlfrdH-34" value="t=3 mo" style="text;html=1;resizable=0;points=[];align=center;verticalAlign=middle;labelBackgroundColor=#ffffff;fontSize=20;" vertex="1" connectable="0" parent="t--BiPY_vCET7tzlfrdH-33">
          <mxGeometry x="0.1545" relative="1" as="geometry">
            <mxPoint x="572" y="-110" as="offset" />
          </mxGeometry>
        </mxCell>
        <mxCell id="t--BiPY_vCET7tzlfrdH-35" style="edgeStyle=none;curved=1;html=1;startSize=10;endFill=1;endSize=10;strokeWidth=2;fontSize=12;entryX=0;entryY=0.5;entryDx=0;entryDy=0;exitX=1;exitY=0.5;exitDx=0;exitDy=0;" edge="1" parent="1" source="t--BiPY_vCET7tzlfrdH-19" target="t--BiPY_vCET7tzlfrdH-14">
          <mxGeometry relative="1" as="geometry">
            <mxPoint x="720" y="1858" as="sourcePoint" />
            <mxPoint x="920" y="1858" as="targetPoint" />
          </mxGeometry>
        </mxCell>
        <mxCell id="t--BiPY_vCET7tzlfrdH-36" value="t=3 mo" style="text;html=1;resizable=0;points=[];align=center;verticalAlign=middle;labelBackgroundColor=#ffffff;fontSize=20;" vertex="1" connectable="0" parent="t--BiPY_vCET7tzlfrdH-35">
          <mxGeometry x="0.1545" relative="1" as="geometry">
            <mxPoint x="572" y="-110" as="offset" />
          </mxGeometry>
        </mxCell>
        <mxCell id="t--BiPY_vCET7tzlfrdH-39" value="D=3" style="text;html=1;strokeColor=none;fillColor=none;align=center;verticalAlign=middle;whiteSpace=wrap;rounded=0;shadow=1;labelBackgroundColor=none;fontSize=20;" vertex="1" parent="1">
          <mxGeometry x="530" y="1650" width="40" height="20" as="geometry" />
        </mxCell>
        <mxCell id="t--BiPY_vCET7tzlfrdH-40" value="C" style="text;html=1;strokeColor=none;fillColor=none;align=center;verticalAlign=middle;whiteSpace=wrap;rounded=0;shadow=1;labelBackgroundColor=none;fontSize=20;" vertex="1" parent="1">
          <mxGeometry x="1370" y="2020" width="40" height="20" as="geometry" />
        </mxCell>
        <mxCell id="t--BiPY_vCET7tzlfrdH-41" value="C" style="text;html=1;strokeColor=none;fillColor=none;align=center;verticalAlign=middle;whiteSpace=wrap;rounded=0;shadow=1;labelBackgroundColor=none;fontSize=20;" vertex="1" parent="1">
          <mxGeometry x="1370" y="2020" width="40" height="20" as="geometry" />
        </mxCell>
        <mxCell id="t--BiPY_vCET7tzlfrdH-42" value="8" style="text;html=1;strokeColor=none;fillColor=none;align=center;verticalAlign=middle;whiteSpace=wrap;rounded=0;shadow=1;labelBackgroundColor=none;fontSize=20;" vertex="1" parent="1">
          <mxGeometry x="1290" y="1839" width="40" height="20" as="geometry" />
        </mxCell>
        <mxCell id="t--BiPY_vCET7tzlfrdH-43" value="A=10" style="text;html=1;strokeColor=none;fillColor=none;align=center;verticalAlign=middle;whiteSpace=wrap;rounded=0;shadow=1;labelBackgroundColor=none;fontSize=20;" vertex="1" parent="1">
          <mxGeometry x="270" y="1650" width="40" height="20" as="geometry" />
        </mxCell>
        <mxCell id="t--BiPY_vCET7tzlfrdH-44" value="C" style="text;html=1;strokeColor=none;fillColor=none;align=center;verticalAlign=middle;whiteSpace=wrap;rounded=0;shadow=1;labelBackgroundColor=none;fontSize=20;" vertex="1" parent="1">
          <mxGeometry x="1380" y="2040" width="40" height="20" as="geometry" />
        </mxCell>
        <mxCell id="t--BiPY_vCET7tzlfrdH-45" value="G=5" style="text;html=1;strokeColor=none;fillColor=none;align=center;verticalAlign=middle;whiteSpace=wrap;rounded=0;shadow=1;labelBackgroundColor=none;fontSize=20;" vertex="1" parent="1">
          <mxGeometry x="1000" y="1890" width="40" height="20" as="geometry" />
        </mxCell>
        <mxCell id="t--BiPY_vCET7tzlfrdH-46" value="F=7" style="text;html=1;strokeColor=none;fillColor=none;align=center;verticalAlign=middle;whiteSpace=wrap;rounded=0;shadow=1;labelBackgroundColor=none;fontSize=20;" vertex="1" parent="1">
          <mxGeometry x="720" y="1800" width="40" height="20" as="geometry" />
        </mxCell>
        <mxCell id="t--BiPY_vCET7tzlfrdH-47" value="E=6" style="text;html=1;strokeColor=none;fillColor=none;align=center;verticalAlign=middle;whiteSpace=wrap;rounded=0;shadow=1;labelBackgroundColor=none;fontSize=20;" vertex="1" parent="1">
          <mxGeometry x="740" y="1690" width="40" height="20" as="geometry" />
        </mxCell>
        <mxCell id="t--BiPY_vCET7tzlfrdH-48" value="" style="endArrow=none;dashed=1;html=1;dashPattern=1 3;strokeWidth=2;rounded=0;entryX=0.5;entryY=1;entryDx=0;entryDy=0;exitX=0.5;exitY=0;exitDx=0;exitDy=0;" edge="1" parent="1" source="t--BiPY_vCET7tzlfrdH-20" target="t--BiPY_vCET7tzlfrdH-14">
          <mxGeometry width="50" height="50" relative="1" as="geometry">
            <mxPoint x="1010" y="1975" as="sourcePoint" />
            <mxPoint x="1060" y="1925" as="targetPoint" />
          </mxGeometry>
        </mxCell>
        <mxCell id="t--BiPY_vCET7tzlfrdH-50" style="edgeStyle=none;curved=1;html=1;startSize=10;endArrow=classic;endFill=1;endSize=10;strokeColor=light-dark(#000000,#FF0000);strokeWidth=2;fontSize=12;" edge="1" parent="1" source="t--BiPY_vCET7tzlfrdH-53" target="t--BiPY_vCET7tzlfrdH-56">
          <mxGeometry relative="1" as="geometry" />
        </mxCell>
        <mxCell id="t--BiPY_vCET7tzlfrdH-51" style="edgeStyle=none;curved=1;html=1;startSize=10;endFill=1;endSize=10;strokeWidth=2;fontSize=12;fillColor=light-dark(transparent,#225555);strokeColor=light-dark(#000000,#FFFFFF);" edge="1" parent="1" source="t--BiPY_vCET7tzlfrdH-53" target="t--BiPY_vCET7tzlfrdH-57">
          <mxGeometry relative="1" as="geometry" />
        </mxCell>
        <mxCell id="t--BiPY_vCET7tzlfrdH-52" value="t=1 mo" style="text;html=1;resizable=0;points=[];align=center;verticalAlign=middle;labelBackgroundColor=#ffffff;fontSize=20;" vertex="1" connectable="0" parent="t--BiPY_vCET7tzlfrdH-51">
          <mxGeometry x="-0.0743" y="-2" relative="1" as="geometry">
            <mxPoint x="1022" y="-277" as="offset" />
          </mxGeometry>
        </mxCell>
        <mxCell id="t--BiPY_vCET7tzlfrdH-53" value="10" style="ellipse;whiteSpace=wrap;html=1;rounded=0;shadow=1;strokeColor=#666666;strokeWidth=4;fontSize=30;align=center;fillColor=#f5f5f5;" vertex="1" parent="1">
          <mxGeometry x="120" y="2160" width="80" height="80" as="geometry" />
        </mxCell>
        <mxCell id="t--BiPY_vCET7tzlfrdH-54" style="edgeStyle=none;curved=1;html=1;startSize=10;endFill=1;endSize=10;strokeWidth=2;fontSize=12;strokeColor=light-dark(#000000,#FF0000);" edge="1" parent="1" source="t--BiPY_vCET7tzlfrdH-56" target="t--BiPY_vCET7tzlfrdH-62">
          <mxGeometry relative="1" as="geometry">
            <mxPoint x="640" y="2040" as="targetPoint" />
          </mxGeometry>
        </mxCell>
        <mxCell id="t--BiPY_vCET7tzlfrdH-55" value="t=3 mo" style="text;html=1;resizable=0;points=[];align=center;verticalAlign=middle;labelBackgroundColor=#ffffff;fontSize=20;" vertex="1" connectable="0" parent="t--BiPY_vCET7tzlfrdH-54">
          <mxGeometry x="0.1545" relative="1" as="geometry">
            <mxPoint x="960" y="-84" as="offset" />
          </mxGeometry>
        </mxCell>
        <mxCell id="t--BiPY_vCET7tzlfrdH-56" value="20" style="ellipse;whiteSpace=wrap;html=1;rounded=0;shadow=1;strokeColor=#666666;strokeWidth=1;fontSize=30;align=center;fillColor=#f5f5f5;" vertex="1" parent="1">
          <mxGeometry x="400" y="2080" width="80" height="80" as="geometry" />
        </mxCell>
        <mxCell id="t--BiPY_vCET7tzlfrdH-57" value="30" style="ellipse;whiteSpace=wrap;html=1;rounded=0;shadow=1;strokeColor=#666666;strokeWidth=1;fontSize=30;align=center;fillColor=#f5f5f5;" vertex="1" parent="1">
          <mxGeometry x="320" y="2240" width="80" height="80" as="geometry" />
        </mxCell>
        <mxCell id="t--BiPY_vCET7tzlfrdH-58" value="B=8" style="text;html=1;strokeColor=none;fillColor=none;align=center;verticalAlign=middle;whiteSpace=wrap;rounded=0;shadow=1;labelBackgroundColor=none;fontSize=20;" vertex="1" parent="1">
          <mxGeometry x="220" y="2240" width="40" height="20" as="geometry" />
        </mxCell>
        <mxCell id="t--BiPY_vCET7tzlfrdH-59" value="C=6" style="text;html=1;strokeColor=none;fillColor=none;align=center;verticalAlign=middle;whiteSpace=wrap;rounded=0;shadow=1;labelBackgroundColor=none;fontSize=20;" vertex="1" parent="1">
          <mxGeometry x="480" y="2250" width="40" height="20" as="geometry" />
        </mxCell>
        <mxCell id="t--BiPY_vCET7tzlfrdH-60" value="50" style="ellipse;whiteSpace=wrap;html=1;rounded=0;shadow=1;strokeColor=#666666;strokeWidth=1;fontSize=30;align=center;fillColor=#f5f5f5;" vertex="1" parent="1">
          <mxGeometry x="840" y="2160" width="80" height="80" as="geometry" />
        </mxCell>
        <mxCell id="t--BiPY_vCET7tzlfrdH-61" value="70" style="ellipse;whiteSpace=wrap;html=1;rounded=0;shadow=1;strokeColor=#666666;strokeWidth=1;fontSize=30;align=center;fillColor=#f5f5f5;" vertex="1" parent="1">
          <mxGeometry x="1120" y="2320" width="80" height="80" as="geometry" />
        </mxCell>
        <mxCell id="t--BiPY_vCET7tzlfrdH-62" value="40" style="ellipse;whiteSpace=wrap;html=1;rounded=0;shadow=1;strokeColor=#666666;strokeWidth=1;fontSize=30;align=center;fillColor=#f5f5f5;" vertex="1" parent="1">
          <mxGeometry x="600" y="2160" width="80" height="80" as="geometry" />
        </mxCell>
        <mxCell id="t--BiPY_vCET7tzlfrdH-63" value="60" style="ellipse;whiteSpace=wrap;html=1;rounded=0;shadow=1;strokeColor=#666666;strokeWidth=1;fontSize=30;align=center;fillColor=#f5f5f5;" vertex="1" parent="1">
          <mxGeometry x="840" y="2320" width="80" height="80" as="geometry" />
        </mxCell>
        <mxCell id="t--BiPY_vCET7tzlfrdH-64" style="edgeStyle=none;curved=1;html=1;startSize=10;endFill=1;endSize=10;strokeWidth=2;fontSize=12;entryX=0;entryY=0.5;entryDx=0;entryDy=0;exitX=1;exitY=0.5;exitDx=0;exitDy=0;strokeColor=light-dark(#000000,#FFFFFF);" edge="1" parent="1" source="t--BiPY_vCET7tzlfrdH-57" target="t--BiPY_vCET7tzlfrdH-62">
          <mxGeometry relative="1" as="geometry">
            <mxPoint x="440" y="2359.5" as="sourcePoint" />
            <mxPoint x="640" y="2359.5" as="targetPoint" />
          </mxGeometry>
        </mxCell>
        <mxCell id="t--BiPY_vCET7tzlfrdH-65" value="t=3 mo" style="text;html=1;resizable=0;points=[];align=center;verticalAlign=middle;labelBackgroundColor=#ffffff;fontSize=20;" vertex="1" connectable="0" parent="t--BiPY_vCET7tzlfrdH-64">
          <mxGeometry x="0.1545" relative="1" as="geometry">
            <mxPoint x="945" y="-369" as="offset" />
          </mxGeometry>
        </mxCell>
        <mxCell id="t--BiPY_vCET7tzlfrdH-66" style="edgeStyle=none;curved=1;html=1;startSize=10;endFill=1;endSize=10;strokeWidth=2;fontSize=12;strokeColor=light-dark(#000000,#FF0000);" edge="1" parent="1">
          <mxGeometry relative="1" as="geometry">
            <mxPoint x="920" y="2359.5" as="sourcePoint" />
            <mxPoint x="1120" y="2359.5" as="targetPoint" />
          </mxGeometry>
        </mxCell>
        <mxCell id="t--BiPY_vCET7tzlfrdH-67" value="t=3 mo" style="text;html=1;resizable=0;points=[];align=center;verticalAlign=middle;labelBackgroundColor=#ffffff;fontSize=20;" vertex="1" connectable="0" parent="t--BiPY_vCET7tzlfrdH-66">
          <mxGeometry x="0.1545" relative="1" as="geometry">
            <mxPoint x="572" y="-110" as="offset" />
          </mxGeometry>
        </mxCell>
        <mxCell id="t--BiPY_vCET7tzlfrdH-68" style="edgeStyle=none;curved=1;html=1;startSize=10;endFill=1;endSize=10;strokeWidth=2;fontSize=12;exitX=1;exitY=1;exitDx=0;exitDy=0;entryX=0;entryY=0;entryDx=0;entryDy=0;fillColor=light-dark(transparent,#FF0000);strokeColor=light-dark(#000000,#FF0000);shadow=1;" edge="1" parent="1" source="t--BiPY_vCET7tzlfrdH-62" target="t--BiPY_vCET7tzlfrdH-63">
          <mxGeometry relative="1" as="geometry">
            <mxPoint x="720" y="2510" as="sourcePoint" />
            <mxPoint x="920" y="2510" as="targetPoint" />
          </mxGeometry>
        </mxCell>
        <mxCell id="t--BiPY_vCET7tzlfrdH-69" value="t=3 mo" style="text;html=1;resizable=0;points=[];align=center;verticalAlign=middle;labelBackgroundColor=#ffffff;fontSize=20;" vertex="1" connectable="0" parent="t--BiPY_vCET7tzlfrdH-68">
          <mxGeometry x="0.1545" relative="1" as="geometry">
            <mxPoint x="572" y="-110" as="offset" />
          </mxGeometry>
        </mxCell>
        <mxCell id="t--BiPY_vCET7tzlfrdH-70" style="edgeStyle=none;curved=1;html=1;startSize=10;endFill=1;endSize=10;strokeWidth=2;fontSize=12;entryX=0;entryY=0.5;entryDx=0;entryDy=0;exitX=1;exitY=0.5;exitDx=0;exitDy=0;" edge="1" parent="1" source="t--BiPY_vCET7tzlfrdH-62" target="t--BiPY_vCET7tzlfrdH-60">
          <mxGeometry relative="1" as="geometry">
            <mxPoint x="720" y="2338" as="sourcePoint" />
            <mxPoint x="920" y="2338" as="targetPoint" />
          </mxGeometry>
        </mxCell>
        <mxCell id="t--BiPY_vCET7tzlfrdH-71" value="t=3 mo" style="text;html=1;resizable=0;points=[];align=center;verticalAlign=middle;labelBackgroundColor=#ffffff;fontSize=20;" vertex="1" connectable="0" parent="t--BiPY_vCET7tzlfrdH-70">
          <mxGeometry x="0.1545" relative="1" as="geometry">
            <mxPoint x="572" y="-110" as="offset" />
          </mxGeometry>
        </mxCell>
        <mxCell id="t--BiPY_vCET7tzlfrdH-72" value="D=5" style="text;html=1;strokeColor=none;fillColor=none;align=center;verticalAlign=middle;whiteSpace=wrap;rounded=0;shadow=1;labelBackgroundColor=none;fontSize=20;" vertex="1" parent="1">
          <mxGeometry x="530" y="2130" width="40" height="20" as="geometry" />
        </mxCell>
        <mxCell id="t--BiPY_vCET7tzlfrdH-73" value="A=10" style="text;html=1;strokeColor=none;fillColor=none;align=center;verticalAlign=middle;whiteSpace=wrap;rounded=0;shadow=1;labelBackgroundColor=none;fontSize=20;" vertex="1" parent="1">
          <mxGeometry x="270" y="2130" width="40" height="20" as="geometry" />
        </mxCell>
        <mxCell id="t--BiPY_vCET7tzlfrdH-74" value="G=5" style="text;html=1;strokeColor=none;fillColor=none;align=center;verticalAlign=middle;whiteSpace=wrap;rounded=0;shadow=1;labelBackgroundColor=none;fontSize=20;" vertex="1" parent="1">
          <mxGeometry x="1000" y="2370" width="40" height="20" as="geometry" />
        </mxCell>
        <mxCell id="t--BiPY_vCET7tzlfrdH-75" value="F=7" style="text;html=1;strokeColor=none;fillColor=none;align=center;verticalAlign=middle;whiteSpace=wrap;rounded=0;shadow=1;labelBackgroundColor=none;fontSize=20;" vertex="1" parent="1">
          <mxGeometry x="720" y="2280" width="40" height="20" as="geometry" />
        </mxCell>
        <mxCell id="t--BiPY_vCET7tzlfrdH-76" value="E=6" style="text;html=1;strokeColor=none;fillColor=none;align=center;verticalAlign=middle;whiteSpace=wrap;rounded=0;shadow=1;labelBackgroundColor=none;fontSize=20;" vertex="1" parent="1">
          <mxGeometry x="740" y="2170" width="40" height="20" as="geometry" />
        </mxCell>
        <mxCell id="t--BiPY_vCET7tzlfrdH-77" value="" style="endArrow=none;dashed=1;html=1;dashPattern=1 3;strokeWidth=2;rounded=0;entryX=0.5;entryY=1;entryDx=0;entryDy=0;exitX=0.5;exitY=0;exitDx=0;exitDy=0;" edge="1" parent="1" source="t--BiPY_vCET7tzlfrdH-63" target="t--BiPY_vCET7tzlfrdH-60">
          <mxGeometry width="50" height="50" relative="1" as="geometry">
            <mxPoint x="1010" y="2455" as="sourcePoint" />
            <mxPoint x="1060" y="2405" as="targetPoint" />
          </mxGeometry>
        </mxCell>
        <mxCell id="t--BiPY_vCET7tzlfrdH-79" style="edgeStyle=none;curved=1;html=1;startSize=10;endArrow=classic;endFill=1;endSize=10;strokeColor=light-dark(#000000,#FFFFFF);strokeWidth=2;fontSize=12;" edge="1" parent="1" source="t--BiPY_vCET7tzlfrdH-82" target="t--BiPY_vCET7tzlfrdH-85">
          <mxGeometry relative="1" as="geometry" />
        </mxCell>
        <mxCell id="t--BiPY_vCET7tzlfrdH-80" style="edgeStyle=none;curved=1;html=1;startSize=10;endFill=1;endSize=10;strokeWidth=2;fontSize=12;fillColor=light-dark(transparent,#225555);strokeColor=light-dark(#000000,#FFFFFF);" edge="1" parent="1" source="t--BiPY_vCET7tzlfrdH-82" target="t--BiPY_vCET7tzlfrdH-86">
          <mxGeometry relative="1" as="geometry" />
        </mxCell>
        <mxCell id="t--BiPY_vCET7tzlfrdH-81" value="t=1 mo" style="text;html=1;resizable=0;points=[];align=center;verticalAlign=middle;labelBackgroundColor=#ffffff;fontSize=20;" vertex="1" connectable="0" parent="t--BiPY_vCET7tzlfrdH-80">
          <mxGeometry x="-0.0743" y="-2" relative="1" as="geometry">
            <mxPoint x="1022" y="-277" as="offset" />
          </mxGeometry>
        </mxCell>
        <mxCell id="t--BiPY_vCET7tzlfrdH-82" value="10" style="ellipse;whiteSpace=wrap;html=1;rounded=0;shadow=1;strokeColor=#666666;strokeWidth=4;fontSize=30;align=center;fillColor=#f5f5f5;" vertex="1" parent="1">
          <mxGeometry x="120" y="2680" width="80" height="80" as="geometry" />
        </mxCell>
        <mxCell id="t--BiPY_vCET7tzlfrdH-83" style="edgeStyle=none;curved=1;html=1;startSize=10;endFill=1;endSize=10;strokeWidth=2;fontSize=12;strokeColor=light-dark(#000000,#FFFFFF);" edge="1" parent="1" source="t--BiPY_vCET7tzlfrdH-85" target="t--BiPY_vCET7tzlfrdH-91">
          <mxGeometry relative="1" as="geometry">
            <mxPoint x="640" y="2560" as="targetPoint" />
          </mxGeometry>
        </mxCell>
        <mxCell id="t--BiPY_vCET7tzlfrdH-84" value="t=3 mo" style="text;html=1;resizable=0;points=[];align=center;verticalAlign=middle;labelBackgroundColor=#ffffff;fontSize=20;" vertex="1" connectable="0" parent="t--BiPY_vCET7tzlfrdH-83">
          <mxGeometry x="0.1545" relative="1" as="geometry">
            <mxPoint x="960" y="-84" as="offset" />
          </mxGeometry>
        </mxCell>
        <mxCell id="t--BiPY_vCET7tzlfrdH-85" value="20" style="ellipse;whiteSpace=wrap;html=1;rounded=0;shadow=1;strokeColor=#666666;strokeWidth=1;fontSize=30;align=center;fillColor=#f5f5f5;" vertex="1" parent="1">
          <mxGeometry x="400" y="2600" width="80" height="80" as="geometry" />
        </mxCell>
        <mxCell id="t--BiPY_vCET7tzlfrdH-86" value="30" style="ellipse;whiteSpace=wrap;html=1;rounded=0;shadow=1;strokeColor=#666666;strokeWidth=1;fontSize=30;align=center;fillColor=#f5f5f5;" vertex="1" parent="1">
          <mxGeometry x="320" y="2760" width="80" height="80" as="geometry" />
        </mxCell>
        <mxCell id="t--BiPY_vCET7tzlfrdH-87" value="B=7" style="text;html=1;strokeColor=none;fillColor=none;align=center;verticalAlign=middle;whiteSpace=wrap;rounded=0;shadow=1;labelBackgroundColor=none;fontSize=20;" vertex="1" parent="1">
          <mxGeometry x="220" y="2760" width="40" height="20" as="geometry" />
        </mxCell>
        <mxCell id="t--BiPY_vCET7tzlfrdH-88" value="C=6" style="text;html=1;strokeColor=none;fillColor=none;align=center;verticalAlign=middle;whiteSpace=wrap;rounded=0;shadow=1;labelBackgroundColor=none;fontSize=20;" vertex="1" parent="1">
          <mxGeometry x="480" y="2770" width="40" height="20" as="geometry" />
        </mxCell>
        <mxCell id="t--BiPY_vCET7tzlfrdH-89" value="50" style="ellipse;whiteSpace=wrap;html=1;rounded=0;shadow=1;strokeColor=#666666;strokeWidth=1;fontSize=30;align=center;fillColor=#f5f5f5;" vertex="1" parent="1">
          <mxGeometry x="840" y="2680" width="80" height="80" as="geometry" />
        </mxCell>
        <mxCell id="t--BiPY_vCET7tzlfrdH-90" value="70" style="ellipse;whiteSpace=wrap;html=1;rounded=0;shadow=1;strokeColor=#666666;strokeWidth=1;fontSize=30;align=center;fillColor=#f5f5f5;" vertex="1" parent="1">
          <mxGeometry x="1120" y="2840" width="80" height="80" as="geometry" />
        </mxCell>
        <mxCell id="t--BiPY_vCET7tzlfrdH-91" value="40" style="ellipse;whiteSpace=wrap;html=1;rounded=0;shadow=1;strokeColor=#666666;strokeWidth=1;fontSize=30;align=center;fillColor=#f5f5f5;" vertex="1" parent="1">
          <mxGeometry x="600" y="2680" width="80" height="80" as="geometry" />
        </mxCell>
        <mxCell id="t--BiPY_vCET7tzlfrdH-93" style="edgeStyle=none;curved=1;html=1;startSize=10;endFill=1;endSize=10;strokeWidth=2;fontSize=12;entryX=0;entryY=0.5;entryDx=0;entryDy=0;exitX=1;exitY=0.5;exitDx=0;exitDy=0;strokeColor=light-dark(#000000,#FFFFFF);" edge="1" parent="1" source="t--BiPY_vCET7tzlfrdH-86" target="t--BiPY_vCET7tzlfrdH-91">
          <mxGeometry relative="1" as="geometry">
            <mxPoint x="440" y="2879.5" as="sourcePoint" />
            <mxPoint x="640" y="2879.5" as="targetPoint" />
          </mxGeometry>
        </mxCell>
        <mxCell id="t--BiPY_vCET7tzlfrdH-94" value="t=3 mo" style="text;html=1;resizable=0;points=[];align=center;verticalAlign=middle;labelBackgroundColor=#ffffff;fontSize=20;" vertex="1" connectable="0" parent="t--BiPY_vCET7tzlfrdH-93">
          <mxGeometry x="0.1545" relative="1" as="geometry">
            <mxPoint x="945" y="-369" as="offset" />
          </mxGeometry>
        </mxCell>
        <mxCell id="t--BiPY_vCET7tzlfrdH-95" style="edgeStyle=none;curved=1;html=1;startSize=10;endFill=1;endSize=10;strokeWidth=2;fontSize=12;strokeColor=light-dark(#000000,#FFFFFF);exitX=1;exitY=0.5;exitDx=0;exitDy=0;entryX=0;entryY=0;entryDx=0;entryDy=0;" edge="1" parent="1" source="t--BiPY_vCET7tzlfrdH-89" target="t--BiPY_vCET7tzlfrdH-90">
          <mxGeometry relative="1" as="geometry">
            <mxPoint x="920" y="2879.5" as="sourcePoint" />
            <mxPoint x="1120" y="2879.5" as="targetPoint" />
          </mxGeometry>
        </mxCell>
        <mxCell id="t--BiPY_vCET7tzlfrdH-96" value="t=3 mo" style="text;html=1;resizable=0;points=[];align=center;verticalAlign=middle;labelBackgroundColor=#ffffff;fontSize=20;" vertex="1" connectable="0" parent="t--BiPY_vCET7tzlfrdH-95">
          <mxGeometry x="0.1545" relative="1" as="geometry">
            <mxPoint x="572" y="-110" as="offset" />
          </mxGeometry>
        </mxCell>
        <mxCell id="t--BiPY_vCET7tzlfrdH-97" style="edgeStyle=none;curved=1;html=1;startSize=10;endFill=1;endSize=10;strokeWidth=2;fontSize=12;exitX=1;exitY=1;exitDx=0;exitDy=0;fillColor=light-dark(transparent,#FF0000);strokeColor=light-dark(#000000,#FFFFFF);shadow=1;entryX=0;entryY=0.5;entryDx=0;entryDy=0;" edge="1" parent="1" source="t--BiPY_vCET7tzlfrdH-91" target="t--BiPY_vCET7tzlfrdH-90">
          <mxGeometry relative="1" as="geometry">
            <mxPoint x="720" y="3030" as="sourcePoint" />
            <mxPoint x="1100" y="2900" as="targetPoint" />
          </mxGeometry>
        </mxCell>
        <mxCell id="t--BiPY_vCET7tzlfrdH-98" value="t=3 mo" style="text;html=1;resizable=0;points=[];align=center;verticalAlign=middle;labelBackgroundColor=#ffffff;fontSize=20;" vertex="1" connectable="0" parent="t--BiPY_vCET7tzlfrdH-97">
          <mxGeometry x="0.1545" relative="1" as="geometry">
            <mxPoint x="572" y="-110" as="offset" />
          </mxGeometry>
        </mxCell>
        <mxCell id="t--BiPY_vCET7tzlfrdH-99" style="edgeStyle=none;curved=1;html=1;startSize=10;endFill=1;endSize=10;strokeWidth=2;fontSize=12;entryX=0;entryY=0.5;entryDx=0;entryDy=0;exitX=1;exitY=0.5;exitDx=0;exitDy=0;" edge="1" parent="1" source="t--BiPY_vCET7tzlfrdH-91" target="t--BiPY_vCET7tzlfrdH-89">
          <mxGeometry relative="1" as="geometry">
            <mxPoint x="720" y="2858" as="sourcePoint" />
            <mxPoint x="920" y="2858" as="targetPoint" />
          </mxGeometry>
        </mxCell>
        <mxCell id="t--BiPY_vCET7tzlfrdH-100" value="t=3 mo" style="text;html=1;resizable=0;points=[];align=center;verticalAlign=middle;labelBackgroundColor=#ffffff;fontSize=20;" vertex="1" connectable="0" parent="t--BiPY_vCET7tzlfrdH-99">
          <mxGeometry x="0.1545" relative="1" as="geometry">
            <mxPoint x="572" y="-110" as="offset" />
          </mxGeometry>
        </mxCell>
        <mxCell id="t--BiPY_vCET7tzlfrdH-101" value="D=3" style="text;html=1;strokeColor=none;fillColor=none;align=center;verticalAlign=middle;whiteSpace=wrap;rounded=0;shadow=1;labelBackgroundColor=none;fontSize=20;" vertex="1" parent="1">
          <mxGeometry x="530" y="2650" width="40" height="20" as="geometry" />
        </mxCell>
        <mxCell id="t--BiPY_vCET7tzlfrdH-102" value="A=10" style="text;html=1;strokeColor=none;fillColor=none;align=center;verticalAlign=middle;whiteSpace=wrap;rounded=0;shadow=1;labelBackgroundColor=none;fontSize=20;" vertex="1" parent="1">
          <mxGeometry x="270" y="2650" width="40" height="20" as="geometry" />
        </mxCell>
        <mxCell id="t--BiPY_vCET7tzlfrdH-103" value="G=5" style="text;html=1;strokeColor=none;fillColor=none;align=center;verticalAlign=middle;whiteSpace=wrap;rounded=0;shadow=1;labelBackgroundColor=none;fontSize=20;" vertex="1" parent="1">
          <mxGeometry x="1020" y="2760" width="40" height="20" as="geometry" />
        </mxCell>
        <mxCell id="t--BiPY_vCET7tzlfrdH-104" value="F=7" style="text;html=1;strokeColor=none;fillColor=none;align=center;verticalAlign=middle;whiteSpace=wrap;rounded=0;shadow=1;labelBackgroundColor=none;fontSize=20;" vertex="1" parent="1">
          <mxGeometry x="860" y="2820" width="40" height="20" as="geometry" />
        </mxCell>
        <mxCell id="t--BiPY_vCET7tzlfrdH-105" value="E=6" style="text;html=1;strokeColor=none;fillColor=none;align=center;verticalAlign=middle;whiteSpace=wrap;rounded=0;shadow=1;labelBackgroundColor=none;fontSize=20;" vertex="1" parent="1">
          <mxGeometry x="740" y="2690" width="40" height="20" as="geometry" />
        </mxCell>
      </root>
    </mxGraphModel>
  </diagram>
</mxfile>
